<?xml version="1.0" standalone="no"?>
<!DOCTYPE svg PUBLIC "-//W3C//DTD SVG 20010904//EN"
 "http://www.w3.org/TR/2001/REC-SVG-20010904/DTD/svg10.dtd">
<svg version="1.0" xmlns="http://www.w3.org/2000/svg"
 width="18.000000pt" height="30.000000pt" viewBox="0 0 544.000000 742.000000"
 preserveAspectRatio="xMidYMid meet">

<g transform="translate(0.000000,742.000000) scale(0.100000,-0.100000)"
fill="green" stroke="none">
<path d="M2540 7224 c-19 -2 -76 -8 -126 -14 -608 -66 -1215 -391 -1625 -868
-572 -668 -755 -1591 -483 -2433 42 -130 110 -294 161 -389 29 -52 1105 -1682
1123 -1700 3 -3 75 -111 160 -240 85 -129 157 -237 160 -240 3 -3 171 -253
374 -557 237 -355 377 -555 393 -562 31 -14 56 -14 87 0 36 17 2144 3182 2230
3349 235 458 319 1019 230 1540 -165 971 -867 1754 -1816 2024 -213 61 -388
86 -633 90 -110 3 -216 2 -235 0z m499 -1776 c73 -231 591 -1895 591 -1901 0
-4 -114 -7 -253 -7 l-254 0 -36 118 c-19 64 -47 156 -62 205 l-26 87 -321 -2
-320 -3 -62 -202 -61 -203 -207 0 c-115 0 -208 3 -208 8 0 4 58 187 128 407
71 220 214 667 318 993 l189 592 277 0 277 0 30 -92z"/>
<path d="M2676 4990 c-3 -8 -50 -161 -104 -340 l-99 -325 104 -3 c56 -1 150
-1 206 0 l104 3 -103 340 c-56 187 -105 333 -108 325z"/>
</g>
</svg>
