<?xml version="1.0" standalone="no"?>
<!DOCTYPE svg PUBLIC "-//W3C//DTD SVG 20010904//EN"
 "http://www.w3.org/TR/2001/REC-SVG-20010904/DTD/svg10.dtd">
<svg version="1.0" xmlns="http://www.w3.org/2000/svg"
 width="18.000000pt" height="30.000000pt" viewBox="0 0 544.000000 742.000000"
 preserveAspectRatio="xMidYMid meet">

<g transform="translate(0.000000,742.000000) scale(0.100000,-0.100000)"
fill="red" stroke="none">
<path d="M2540 7224 c-19 -2 -76 -8 -126 -14 -608 -66 -1215 -391 -1625 -868
-572 -668 -755 -1591 -483 -2433 42 -130 110 -294 161 -389 29 -52 1105 -1682
1123 -1700 3 -3 75 -111 160 -240 85 -129 157 -237 160 -240 3 -3 171 -253
374 -557 237 -355 377 -555 393 -562 31 -14 56 -14 87 0 36 17 2144 3182 2230
3349 235 458 319 1019 230 1540 -165 971 -867 1754 -1816 2024 -213 61 -388
86 -633 90 -110 3 -216 2 -235 0z m715 -1927 c182 -53 326 -190 370 -351 13
-47 16 -90 13 -167 -4 -117 -29 -186 -93 -264 -37 -46 -138 -115 -197 -136
-39 -13 -50 -29 -22 -29 43 0 171 -75 229 -134 193 -196 192 -499 -4 -708 -71
-76 -156 -125 -276 -159 -78 -23 -91 -23 -657 -27 l-578 -3 0 1001 0 1001 578
-3 c513 -3 584 -6 637 -21z"/>
<path d="M2510 4746 l0 -216 168 1 c328 1 401 19 447 113 52 106 27 228 -58
284 l-40 27 -259 3 -258 3 0 -215z"/>
<path d="M2510 3931 l0 -241 163 0 c296 1 408 21 467 81 81 85 80 232 -2 317
-62 63 -113 74 -385 80 l-243 5 0 -242z"/>
</g>
</svg>
